<?xml version="1.0" encoding="iso-8859-1"?>
<!-- Generator: Adobe Illustrator 19.0.0, SVG Export Plug-In . SVG Version: 6.00 Build 0)  -->
<svg version="1.1" id="Layer_1" xmlns="http://www.w3.org/2000/svg" xmlns:xlink="http://www.w3.org/1999/xlink" x="0px" y="0px"
	 viewBox="0 0 496 496" style="enable-background:new 0 0 496 496;" xml:space="preserve">
<g>
	<g>
		<g>
			<path d="M471.64,132.74c-3.44-13.112-32.448-20.376-64.848-24.392c6.856-5.28,25.208-22.264,25.208-52.96
				c0-36.92-26.608-54.064-27.744-54.776l-8.512,13.544C395.944,14.284,416,27.22,416,55.388c0,27.832-19.472,40.72-20.256,41.224
				l7.072,11.248c-27.664-3.184-57.056-4.12-74.808-4.376V77.916c9.288-3.312,16-12.112,16-22.528c0-13.232-10.768-24-24-24
				s-24,10.768-24,24c0,10.416,6.712,19.216,16,22.528v25.488c-14.272,0.072-44.456,0.624-74.24,3.552l6.496-10.336
				C244.056,96.492,224,83.556,224,55.388c0-27.832,19.472-40.72,20.296-41.248L240,7.388l-4.256-6.776
				C234.608,1.324,208,18.468,208,55.388c0,29.272,16.688,46.064,24.184,52.144c-35.112,3.824-68.136,11.16-71.824,25.208
				c-2.896,5.24-5.488,10.48-7.872,15.712l-133.96-44.648l-1.232-0.416H0v16h14.704l131.664,43.888
				C139.504,182.18,136,200.956,136,219.388v33.96l-22.408,41.08l-98.888,32.96H0v16h17.296l85.056-28.352l-10.768,19.736
				C89.24,339.076,88,343.94,88,348.844c0,14.52,10.84,27.032,25.224,29.096L144,382.324v25.064c0,30.872,25.128,56,56,56h24v32h16
				v-48h-40c-22.056,0-40-17.944-40-40v-38.936l-44.504-6.36c-6.56-0.936-11.496-6.632-11.496-13.248
				c0-2.232,0.56-4.456,1.632-6.416l18.992-34.816l132.856-44.288c46.064-0.68,82.32-32.6,83.856-33.976l6.656-5.96l-6.656-5.96
				c-1.536-1.376-37.792-33.296-83.856-33.976l-89.728-29.912c0.784-1.68,1.536-3.36,2.376-5.04
				c31.008,17.808,124.24,18.888,145.872,18.888c21.632,0,114.864-1.08,145.872-18.888C473.888,172.548,480,196.356,480,219.388
				c0,52.416-17.6,104.16-49.56,145.704L400,404.668v90.72h16v-85.28l27.128-35.264C477.216,330.524,496,275.308,496,219.388
				C496,191.052,487.776,161.9,471.64,132.74z M292.28,206.78c13.12,5.12,23.944,11.808,30.68,16.608
				c-6.736,4.792-17.56,11.48-30.68,16.608c2.336-5.08,3.72-10.672,3.72-16.608C296,217.452,294.616,211.86,292.28,206.78z
				 M256,199.388c13.232,0,24,10.768,24,24s-10.768,24-24,24s-24-10.768-24-24S242.768,199.388,256,199.388z M222.624,188.692
				c-29.92,9.304-50.8,27.696-51.96,28.736l-6.656,5.96l6.656,5.96c1.16,1.04,22.032,19.432,51.96,28.736l-86.752,28.92L152,257.428
				v-38.04c0-16.68,3.232-33.768,9.552-51.048L222.624,188.692z M219.72,239.996c-13.12-5.12-23.944-11.808-30.68-16.608
				c6.736-4.792,17.56-11.48,30.68-16.608c-2.336,5.08-3.72,10.672-3.72,16.608C216,229.324,217.384,234.916,219.72,239.996z
				 M312,55.388c0-4.416,3.584-8,8-8c4.416,0,8,3.584,8,8s-3.584,8-8,8C315.584,63.388,312,59.804,312,55.388z M316,151.388
				c-74.504,0-125.592-8.888-138.088-16c12.264-6.976,61.792-15.656,134.088-15.968v15.968h16v-15.912
				c67.952,0.888,114.28,9.192,126.088,15.912C441.592,142.5,390.504,151.388,316,151.388z"/>
			<path d="M368,55.388c0,15.736-12.656,25.496-12.752,25.56l9.504,12.872C365.536,93.244,384,79.348,384,55.388
				s-18.464-37.856-19.248-38.44l-9.536,12.84C355.344,29.892,368,39.652,368,55.388z"/>
			<path d="M275.248,93.828l9.536-12.84C284.656,80.884,272,71.124,272,55.388s12.656-25.496,12.792-25.592L280,23.388l-4.752-6.44
				C274.464,17.532,256,31.428,256,55.388S274.464,93.244,275.248,93.828z"/>
		</g>
	</g>
</g>
<g>
</g>
<g>
</g>
<g>
</g>
<g>
</g>
<g>
</g>
<g>
</g>
<g>
</g>
<g>
</g>
<g>
</g>
<g>
</g>
<g>
</g>
<g>
</g>
<g>
</g>
<g>
</g>
<g>
</g>
</svg>
