<?xml version="1.0" standalone="no"?>
<!DOCTYPE svg PUBLIC "-//W3C//DTD SVG 20010904//EN"
 "http://www.w3.org/TR/2001/REC-SVG-20010904/DTD/svg10.dtd">
<svg version="1.0" xmlns="http://www.w3.org/2000/svg"
 width="700.000000pt" height="700.000000pt" viewBox="0 0 700.000000 700.000000"
 preserveAspectRatio="xMidYMid meet">
<metadata>
Created by potrace 1.11, written by Peter Selinger 2001-2013
</metadata>
<g transform="translate(0.000000,700.000000) scale(0.100000,-0.100000)"
fill="#000000" stroke="none">
<path d="M3273 6950 c-158 -125 -289 -355 -323 -565 -19 -116 -15 -291 9 -372
5 -18 8 -33 6 -33 -8 0 47 -144 77 -205 40 -79 88 -145 167 -227 49 -52 60
-68 45 -69 -10 0 -26 -2 -34 -3 -8 -2 -42 -6 -75 -10 -99 -12 -129 -16 -155
-22 -14 -3 -41 -8 -60 -10 -19 -3 -42 -7 -50 -9 -8 -2 -29 -7 -46 -9 -133 -23
-337 -90 -430 -142 -84 -47 -108 -77 -184 -231 -36 -73 -70 -133 -75 -133 -6
0 -139 43 -295 96 -157 53 -298 100 -315 104 -16 5 -313 103 -660 219 l-629
211 -123 0 -123 0 0 -113 0 -113 103 1 102 1 924 -308 c508 -169 926 -310 929
-313 2 -2 -8 -44 -23 -92 -16 -48 -30 -97 -32 -107 -2 -10 -12 -53 -22 -95
-11 -42 -23 -98 -27 -126 -3 -27 -8 -57 -10 -67 -19 -107 -23 -189 -24 -518
l-1 -265 -76 -140 c-42 -77 -89 -165 -106 -195 -16 -30 -53 -98 -83 -150 l-52
-95 -314 -105 c-172 -57 -317 -105 -323 -107 -5 -1 -179 -58 -385 -127 l-375
-126 -102 0 -103 0 0 -114 0 -114 133 3 132 3 584 196 c321 108 586 195 587
193 2 -1 -33 -68 -76 -147 -94 -171 -113 -223 -115 -310 -3 -119 42 -228 127
-310 80 -77 166 -109 363 -134 22 -3 97 -13 168 -23 l127 -17 0 -71 c1 -313 3
-361 22 -449 62 -292 289 -527 581 -601 81 -20 118 -23 307 -24 118 -1 216 -4
218 -6 2 -1 3 -102 3 -224 l0 -221 113 0 113 0 1 338 0 338 -316 1 c-259 0
-329 3 -382 17 -223 56 -389 238 -425 464 -4 24 -7 176 -7 338 0 161 -3 294
-7 295 -13 2 -69 10 -131 19 -36 5 -83 12 -105 15 -22 3 -71 10 -110 16 -38 5
-88 12 -110 15 -214 28 -267 50 -305 129 -33 69 -24 127 38 240 27 50 66 122
87 160 111 203 138 251 145 258 15 17 1867 628 1915 632 83 8 169 17 185 20 8
2 31 6 50 10 300 54 675 245 943 479 l58 51 -49 45 c-308 287 -757 488 -1152
516 -63 4 -176 39 -707 216 -348 115 -633 212 -633 215 0 17 34 64 43 59 158
-71 335 -122 552 -156 72 -12 141 -23 155 -25 27 -4 78 -10 180 -20 36 -4 81
-8 100 -11 61 -7 164 -14 410 -29 320 -20 974 -20 1300 0 204 12 329 21 425
31 66 7 77 8 185 19 41 4 77 9 80 10 3 2 33 6 65 10 33 3 67 8 75 10 8 3 31 7
50 10 32 5 162 32 200 40 86 20 202 61 317 111 14 7 36 -34 96 -181 71 -175
125 -368 151 -540 18 -117 24 -370 12 -500 -13 -147 -22 -230 -30 -275 -3 -14
-7 -42 -10 -62 -39 -259 -158 -628 -295 -910 -134 -277 -207 -386 -566 -852
-118 -154 -216 -282 -216 -285 -1 -4 -2 -293 -3 -643 l-1 -638 112 0 113 0 0
599 0 598 52 69 c28 38 117 154 197 258 200 260 278 370 365 516 139 233 263
507 345 762 33 102 95 347 105 414 3 21 10 62 16 89 13 70 19 111 25 180 3 33
8 71 12 85 13 56 11 467 -3 579 -35 283 -123 557 -279 874 -96 194 -119 216
-288 288 -114 47 -389 114 -557 134 -25 3 -60 8 -78 11 l-33 6 70 72 c111 113
177 216 225 357 46 136 64 343 41 469 -40 221 -120 376 -269 526 -109 109
-104 109 -167 7 -30 -48 -56 -91 -57 -95 -2 -5 19 -29 48 -54 260 -235 304
-661 99 -960 -15 -22 -55 -68 -89 -101 l-62 -61 28 -46 c16 -26 37 -61 48 -77
l19 -31 -69 7 c-38 3 -87 8 -109 10 -217 21 -601 42 -832 45 l-43 0 0 180 0
179 38 18 c20 9 60 40 88 68 147 146 122 397 -49 510 -224 146 -510 6 -525
-258 -8 -125 47 -230 157 -301 34 -22 61 -47 62 -55 4 -73 3 -325 -1 -331 -3
-5 -104 -11 -225 -14 -207 -5 -379 -13 -505 -21 -158 -11 -229 -17 -268 -20
l-44 -5 28 48 c15 26 35 58 44 71 17 24 17 25 -46 83 -137 129 -213 300 -219
499 -7 218 65 402 215 549 l66 65 -56 87 c-30 48 -58 89 -61 92 -3 4 -29 -12
-56 -34z m1296 -635 c28 -14 61 -68 61 -100 0 -25 -27 -72 -52 -89 -12 -9 -41
-16 -64 -16 -111 0 -149 155 -50 204 39 20 69 20 105 1z m-168 -1010 c1 -5 2
-55 2 -110 l2 -100 113 -3 112 -3 0 112 0 112 233 -7 c127 -4 255 -9 282 -11
28 -2 93 -6 145 -10 52 -3 111 -8 130 -10 19 -2 73 -6 120 -10 46 -4 87 -8 90
-10 3 -2 35 -6 71 -9 36 -4 76 -8 90 -11 13 -2 69 -11 124 -19 117 -19 145
-24 205 -37 25 -6 52 -12 61 -14 43 -9 167 -49 193 -62 l29 -15 -41 -18 c-45
-20 -173 -57 -230 -66 -20 -3 -39 -7 -42 -9 -5 -3 -147 -29 -220 -40 -103 -15
-230 -31 -325 -40 -33 -3 -78 -8 -100 -10 -22 -2 -78 -6 -125 -10 -47 -3 -112
-8 -145 -10 -250 -18 -867 -24 -1190 -11 -237 9 -240 10 -515 32 -45 3 -129
12 -185 19 -16 2 -57 7 -90 10 -33 3 -100 13 -150 21 -49 8 -103 17 -120 20
-124 20 -300 65 -374 97 l-35 15 34 17 c68 35 333 98 510 120 30 4 63 9 74 11
10 2 44 6 75 9 31 3 70 8 86 10 29 4 83 9 195 20 57 5 173 13 275 20 33 2 168
7 300 11 132 4 241 7 242 8 9 6 93 -1 94 -9z m-1696 -821 c225 -76 414 -140
418 -144 4 -4 -26 -19 -67 -34 -230 -81 -520 -255 -696 -416 l-45 -42 55 -50
c180 -163 446 -324 671 -404 41 -14 77 -29 82 -33 6 -6 -115 -52 -178 -68 -11
-2 -993 -330 -1013 -338 -11 -4 71 164 98 200 4 6 31 55 61 110 l53 100 2 320
c1 288 7 431 19 475 2 8 6 37 10 63 8 64 39 193 70 292 33 105 33 105 42 105
4 0 192 -61 418 -136z m990 -310 c78 -16 176 -93 216 -169 89 -168 15 -382
-160 -463 -66 -31 -177 -38 -242 -16 -175 61 -274 251 -218 423 20 63 78 138
132 174 91 60 163 73 272 51z m-617 -151 c-31 -83 -31 -274 -1 -350 12 -31 17
-53 11 -53 -21 0 -255 120 -337 173 l-84 54 72 47 c93 61 317 177 358 186 1 0
-8 -26 -19 -57z m1207 -15 c82 -41 214 -117 250 -144 23 -18 26 -16 -94 -91
-91 -58 -298 -159 -307 -151 -1 2 7 30 18 63 32 94 29 244 -6 344 -9 24 -16
45 -16 47 0 5 69 -25 155 -68z"/>
<path d="M3828 6707 c-141 -139 -212 -307 -211 -497 1 -89 6 -119 31 -193 17
-49 42 -106 56 -128 14 -21 26 -42 26 -47 0 -11 139 -162 150 -162 4 0 37 39
73 87 l65 87 -45 50 c-88 98 -123 181 -129 298 -5 125 34 227 126 326 l48 52
-60 83 c-33 45 -64 86 -68 90 -4 5 -32 -16 -62 -46z"/>
<path d="M5085 6678 c-33 -45 -62 -85 -63 -90 -2 -4 15 -29 38 -56 90 -101
128 -195 128 -311 0 -120 -35 -211 -119 -305 -27 -30 -49 -57 -49 -61 0 -10
123 -175 130 -175 13 0 105 99 142 153 189 278 162 604 -72 860 -34 37 -65 67
-68 67 -4 -1 -34 -37 -67 -82z"/>
</g>
</svg>
